<svg id="Layer_1" data-name="Layer 1" xmlns="http://www.w3.org/2000/svg" xmlns:xlink="http://www.w3.org/1999/xlink" viewBox="0 0 331.91 323.61"><defs><style>.cls-1{fill:url(#radial-gradient);}.cls-2{fill:#ff7f18;}</style><radialGradient id="radial-gradient" cx="-654.81" cy="357.16" r="0.1" gradientTransform="matrix(2291.67, 0, 0, -2218.75, 1500722.38, 792554.3)" gradientUnits="userSpaceOnUse"><stop offset="0" stop-color="#423325" stop-opacity="0.98"/><stop offset="1" stop-color="#1c0a00"/></radialGradient></defs><title>ai_icon</title><path class="cls-1" d="M15.92,28.43H320.17v296H15.92Z" transform="translate(-2.09 -14.6)"/><path class="cls-2" d="M15.92,28.43H320.17v296H15.92ZM2.09,338.22H334V14.6H2.09Zm217.4-208.27c0-1.11.41-1.66,1.66-1.66h21.71c1.11,0,1.66.41,1.66,1.66V239.06c0,1.11-.28,1.66-1.66,1.66H221.43c-1.38,0-1.8-.69-1.8-1.8v-109h-.14ZM218,98.55c0-8.85,6.22-14.11,14.11-14.11,8.44,0,14.11,5.67,14.11,14.11,0,9.13-5.95,14.11-14.38,14.11C223.78,112.66,218,107.68,218,98.55Zm-62.23,76.89c-3.87-15.35-13-48.82-16.46-65H139c-2.9,16.18-10.23,43.56-16,65Zm-38.45,22.4-10.93,41.49c-.28,1.11-.69,1.38-2.07,1.38H84c-1.38,0-1.66-.41-1.38-2.07l39.28-137.47c.69-2.49,1.11-4.7,1.38-11.48,0-1,.41-1.38,1.11-1.38h29c1,0,1.38.28,1.66,1.38l44,149.22c.28,1.11,0,1.8-1.11,1.8H175c-1.11,0-1.8-.28-2.07-1.24l-11.34-41.63H117.29Z" transform="translate(-2.09 -14.6)"/></svg>