<svg id="Layer_1" data-name="Layer 1" xmlns="http://www.w3.org/2000/svg" xmlns:xlink="http://www.w3.org/1999/xlink" viewBox="0 0 331.91 323.61"><defs><style>.cls-1{fill:url(#radial-gradient);}.cls-2{fill:#31c5f0;}</style><radialGradient id="radial-gradient" cx="-654.81" cy="357.16" r="0.1" gradientTransform="matrix(2291.67, 0, 0, -2218.75, 1500722.38, 792554.3)" gradientUnits="userSpaceOnUse"><stop offset="0" stop-color="#34364e" stop-opacity="0.98"/><stop offset="1" stop-color="#0c0824"/></radialGradient></defs><title>psd_icon</title><path class="cls-1" d="M15.92,27.43H320.17v296H15.92Z" transform="translate(-2.09 -13.61)"/><path class="cls-2" d="M15.92,27.43H320.17v296H15.92ZM2.09,337.21H334V13.61H2.09ZM225.85,146.37c-10.93,0-14.66,5.53-14.66,10.1,0,5,2.49,8.44,17.15,16,21.71,10.51,28.49,20.61,28.49,35.4,0,22.13-16.87,34-39.69,34-12,0-22.4-2.49-28.35-5.95-1-.41-1.11-1.11-1.11-2.21V213.44c0-1.38.69-1.8,1.66-1.11a51.33,51.33,0,0,0,27.8,8.16c10.93,0,15.49-4.56,15.49-10.79,0-5-3.18-9.4-17.15-16.6-19.64-9.4-27.8-18.95-27.8-34.85,0-17.84,14-32.64,38.17-32.64,11.89,0,20.19,1.8,24.75,3.87a3.06,3.06,0,0,1,1.38,2.77v18.95c0,1.11-.69,1.8-2.07,1.38-6.08-3.87-15.07-6.22-24.06-6.22ZM106.92,162.82c3.18.28,5.67.28,11.2.28,16.18,0,31.39-5.67,31.39-27.66,0-17.56-10.93-26.41-29.32-26.41-5.53,0-10.79.28-13.28.41ZM82.3,89.39c0-1,1.94-1.66,3-1.66,8.85-.41,22-.69,35.68-.69,38.31,0,53.24,21,53.24,47.85,0,35.13-25.45,50.2-56.7,50.2-5.26,0-7.05-.28-10.79-.28v53.11c0,1.11-.41,1.66-1.66,1.66H84c-1.11,0-1.66-.41-1.66-1.66V89.39Z" transform="translate(-2.09 -13.61)"/></svg>